<mxfile host="app.diagrams.net" modified="2022-12-14T13:18:56.222Z" agent="5.0 (Windows NT 10.0; Win64; x64) AppleWebKit/537.36 (KHTML, like Gecko) Chrome/108.0.0.0 Safari/537.36 Edg/108.0.1462.46" etag="ufBloJGjTwRkInja03fp" version="20.7.2" type="github">
  <diagram name="Page-1" id="42789a77-a242-8287-6e28-9cd8cfd52e62">
    <mxGraphModel dx="1004" dy="573" grid="1" gridSize="10" guides="1" tooltips="1" connect="1" arrows="1" fold="1" page="1" pageScale="1" pageWidth="1100" pageHeight="850" background="none" math="0" shadow="0">
      <root>
        <mxCell id="0" />
        <mxCell id="1" parent="0" />
        <mxCell id="1ea317790d2ca983-13" value="" style="edgeStyle=none;rounded=1;html=1;labelBackgroundColor=none;startArrow=none;startFill=0;startSize=5;endArrow=classicThin;endFill=1;endSize=5;jettySize=auto;orthogonalLoop=1;strokeColor=#B3B3B3;strokeWidth=1;fontFamily=Verdana;fontSize=12;exitX=0.5;exitY=1;exitDx=0;exitDy=0;" parent="1" source="7LR6ILex5jpHhu4dDKW4-14" target="1ea317790d2ca983-9" edge="1">
          <mxGeometry relative="1" as="geometry">
            <mxPoint x="471.65859576671915" y="98.65121236983259" as="sourcePoint" />
          </mxGeometry>
        </mxCell>
        <mxCell id="1ea317790d2ca983-14" value="" style="edgeStyle=none;rounded=1;html=1;labelBackgroundColor=none;startArrow=none;startFill=0;startSize=5;endArrow=classicThin;endFill=1;endSize=5;jettySize=auto;orthogonalLoop=1;strokeColor=#B3B3B3;strokeWidth=1;fontFamily=Verdana;fontSize=12;exitX=1;exitY=0.5;exitDx=0;exitDy=0;" parent="1" source="7LR6ILex5jpHhu4dDKW4-14" target="1ea317790d2ca983-3" edge="1">
          <mxGeometry relative="1" as="geometry">
            <mxPoint x="511.51274708523033" y="94.24022590649611" as="sourcePoint" />
          </mxGeometry>
        </mxCell>
        <mxCell id="1ea317790d2ca983-15" value="" style="edgeStyle=none;rounded=1;html=1;labelBackgroundColor=none;startArrow=none;startFill=0;startSize=5;endArrow=classicThin;endFill=1;endSize=5;jettySize=auto;orthogonalLoop=1;strokeColor=#B3B3B3;strokeWidth=1;fontFamily=Verdana;fontSize=12" parent="1" source="1ea317790d2ca983-3" target="1ea317790d2ca983-4" edge="1">
          <mxGeometry relative="1" as="geometry" />
        </mxCell>
        <mxCell id="7LR6ILex5jpHhu4dDKW4-25" style="edgeStyle=none;rounded=0;orthogonalLoop=1;jettySize=auto;html=1;exitX=0.5;exitY=0;exitDx=0;exitDy=0;labelBackgroundColor=#FFFFFF;strokeColor=#CCCCCC;fontColor=#000000;entryX=0;entryY=0.5;entryDx=0;entryDy=0;" edge="1" parent="1" source="1ea317790d2ca983-3" target="7LR6ILex5jpHhu4dDKW4-26">
          <mxGeometry relative="1" as="geometry">
            <mxPoint x="690" y="50" as="targetPoint" />
          </mxGeometry>
        </mxCell>
        <mxCell id="1ea317790d2ca983-3" value="&lt;span&gt;apparaat&lt;/span&gt;" style="ellipse;whiteSpace=wrap;html=1;rounded=0;shadow=1;comic=0;labelBackgroundColor=none;strokeWidth=1;fontFamily=Verdana;fontSize=12;align=center;" parent="1" vertex="1">
          <mxGeometry x="540" y="130" width="75" height="50" as="geometry" />
        </mxCell>
        <mxCell id="1ea317790d2ca983-4" value="&lt;span&gt;toevoegen&lt;/span&gt;" style="ellipse;whiteSpace=wrap;html=1;rounded=0;shadow=1;comic=0;labelBackgroundColor=none;strokeWidth=1;fontFamily=Verdana;fontSize=12;align=center;" parent="1" vertex="1">
          <mxGeometry x="700" y="90" width="75" height="50" as="geometry" />
        </mxCell>
        <mxCell id="1ea317790d2ca983-19" value="" style="edgeStyle=none;rounded=1;html=1;labelBackgroundColor=none;startArrow=none;startFill=0;startSize=5;endArrow=classicThin;endFill=1;endSize=5;jettySize=auto;orthogonalLoop=1;strokeColor=#B3B3B3;strokeWidth=1;fontFamily=Verdana;fontSize=12" parent="1" source="1ea317790d2ca983-9" target="1ea317790d2ca983-10" edge="1">
          <mxGeometry relative="1" as="geometry" />
        </mxCell>
        <mxCell id="1ea317790d2ca983-9" value="uitlogpagina" style="ellipse;whiteSpace=wrap;html=1;rounded=0;shadow=1;comic=0;labelBackgroundColor=none;strokeWidth=1;fontFamily=Verdana;fontSize=12;align=center;" parent="1" vertex="1">
          <mxGeometry x="375" y="200" width="75" height="50" as="geometry" />
        </mxCell>
        <mxCell id="7LR6ILex5jpHhu4dDKW4-41" style="edgeStyle=none;rounded=0;orthogonalLoop=1;jettySize=auto;html=1;exitX=1;exitY=1;exitDx=0;exitDy=0;labelBackgroundColor=#FFFFFF;strokeColor=#CCCCCC;fontColor=#000000;entryX=0;entryY=0.5;entryDx=0;entryDy=0;" edge="1" parent="1" source="1ea317790d2ca983-10" target="7LR6ILex5jpHhu4dDKW4-42">
          <mxGeometry relative="1" as="geometry">
            <mxPoint x="540" y="410" as="targetPoint" />
          </mxGeometry>
        </mxCell>
        <mxCell id="1ea317790d2ca983-10" value="&lt;span&gt;inlogpagina&lt;/span&gt;" style="ellipse;whiteSpace=wrap;html=1;rounded=0;shadow=1;comic=0;labelBackgroundColor=none;strokeWidth=1;fontFamily=Verdana;fontSize=12;align=center;" parent="1" vertex="1">
          <mxGeometry x="410" y="310" width="75" height="50" as="geometry" />
        </mxCell>
        <mxCell id="7LR6ILex5jpHhu4dDKW4-1" value="Actor" style="shape=umlActor;verticalLabelPosition=bottom;verticalAlign=top;html=1;outlineConnect=0;" vertex="1" parent="1">
          <mxGeometry x="200" y="50" width="30" height="60" as="geometry" />
        </mxCell>
        <mxCell id="7LR6ILex5jpHhu4dDKW4-3" value="" style="endArrow=classic;html=1;rounded=0;fontColor=#CCCCCC;" edge="1" parent="1">
          <mxGeometry width="50" height="50" relative="1" as="geometry">
            <mxPoint x="250" y="100" as="sourcePoint" />
            <mxPoint x="340" y="100" as="targetPoint" />
            <Array as="points">
              <mxPoint x="250" y="100" />
            </Array>
          </mxGeometry>
        </mxCell>
        <mxCell id="7LR6ILex5jpHhu4dDKW4-4" value="verwijderen" style="ellipse;whiteSpace=wrap;html=1;shadow=1;" vertex="1" parent="1">
          <mxGeometry x="700" y="180" width="75" height="50" as="geometry" />
        </mxCell>
        <mxCell id="7LR6ILex5jpHhu4dDKW4-5" value="" style="edgeStyle=none;rounded=1;html=1;labelBackgroundColor=none;startArrow=none;startFill=0;startSize=5;endArrow=none;endFill=1;endSize=5;jettySize=auto;orthogonalLoop=1;strokeColor=#B3B3B3;strokeWidth=1;fontFamily=Verdana;fontSize=12" edge="1" parent="1" source="1ea317790d2ca983-4" target="7LR6ILex5jpHhu4dDKW4-4">
          <mxGeometry relative="1" as="geometry">
            <mxPoint x="737.5" y="140" as="sourcePoint" />
            <mxPoint x="737.5" y="470" as="targetPoint" />
          </mxGeometry>
        </mxCell>
        <mxCell id="7LR6ILex5jpHhu4dDKW4-8" value="" style="endArrow=classic;html=1;rounded=0;entryX=0;entryY=0.5;entryDx=0;entryDy=0;exitX=1;exitY=1;exitDx=0;exitDy=0;strokeColor=#CCCCCC;" edge="1" parent="1" source="1ea317790d2ca983-3" target="7LR6ILex5jpHhu4dDKW4-4">
          <mxGeometry width="50" height="50" relative="1" as="geometry">
            <mxPoint x="600" y="210" as="sourcePoint" />
            <mxPoint x="650" y="160" as="targetPoint" />
          </mxGeometry>
        </mxCell>
        <mxCell id="7LR6ILex5jpHhu4dDKW4-20" style="rounded=0;orthogonalLoop=1;jettySize=auto;html=1;exitX=1;exitY=1;exitDx=0;exitDy=0;entryX=0;entryY=0.5;entryDx=0;entryDy=0;labelBackgroundColor=#FFFFFF;strokeColor=#CCCCCC;fontColor=#000000;" edge="1" parent="1" source="7LR6ILex5jpHhu4dDKW4-10" target="7LR6ILex5jpHhu4dDKW4-18">
          <mxGeometry relative="1" as="geometry" />
        </mxCell>
        <mxCell id="7LR6ILex5jpHhu4dDKW4-10" value="e&lt;font color=&quot;#000000&quot;&gt;zoekbalk&lt;/font&gt;" style="ellipse;whiteSpace=wrap;html=1;shadow=1;fontColor=#FFFFFF;" vertex="1" parent="1">
          <mxGeometry x="537.5" y="230" width="80" height="50" as="geometry" />
        </mxCell>
        <mxCell id="7LR6ILex5jpHhu4dDKW4-11" value="" style="endArrow=classic;html=1;rounded=0;labelBackgroundColor=#FFFFFF;strokeColor=#CCCCCC;fontColor=#FFFFFF;entryX=0;entryY=0;entryDx=0;entryDy=0;exitX=1;exitY=1;exitDx=0;exitDy=0;" edge="1" parent="1" source="7LR6ILex5jpHhu4dDKW4-14" target="7LR6ILex5jpHhu4dDKW4-10">
          <mxGeometry width="50" height="50" relative="1" as="geometry">
            <mxPoint x="516.8198051533946" y="91.21320343559637" as="sourcePoint" />
            <mxPoint x="520" y="180" as="targetPoint" />
          </mxGeometry>
        </mxCell>
        <mxCell id="7LR6ILex5jpHhu4dDKW4-36" style="edgeStyle=none;rounded=0;orthogonalLoop=1;jettySize=auto;html=1;exitX=1;exitY=0;exitDx=0;exitDy=0;entryX=0;entryY=0.5;entryDx=0;entryDy=0;labelBackgroundColor=#FFFFFF;strokeColor=#CCCCCC;fontColor=#000000;" edge="1" parent="1" source="7LR6ILex5jpHhu4dDKW4-14" target="7LR6ILex5jpHhu4dDKW4-35">
          <mxGeometry relative="1" as="geometry" />
        </mxCell>
        <mxCell id="7LR6ILex5jpHhu4dDKW4-14" value="website" style="ellipse;whiteSpace=wrap;html=1;shadow=1;fontColor=#000000;" vertex="1" parent="1">
          <mxGeometry x="340" y="70" width="80" height="50" as="geometry" />
        </mxCell>
        <mxCell id="7LR6ILex5jpHhu4dDKW4-22" style="edgeStyle=orthogonalEdgeStyle;rounded=0;orthogonalLoop=1;jettySize=auto;html=1;exitX=1;exitY=0.5;exitDx=0;exitDy=0;entryX=0;entryY=0.5;entryDx=0;entryDy=0;labelBackgroundColor=#FFFFFF;strokeColor=#CCCCCC;fontColor=#000000;" edge="1" parent="1" source="7LR6ILex5jpHhu4dDKW4-18" target="7LR6ILex5jpHhu4dDKW4-21">
          <mxGeometry relative="1" as="geometry" />
        </mxCell>
        <mxCell id="7LR6ILex5jpHhu4dDKW4-24" style="rounded=0;orthogonalLoop=1;jettySize=auto;html=1;exitX=1;exitY=1;exitDx=0;exitDy=0;entryX=0;entryY=0.5;entryDx=0;entryDy=0;labelBackgroundColor=#FFFFFF;strokeColor=#CCCCCC;fontColor=#000000;" edge="1" parent="1" source="7LR6ILex5jpHhu4dDKW4-18" target="7LR6ILex5jpHhu4dDKW4-23">
          <mxGeometry relative="1" as="geometry" />
        </mxCell>
        <mxCell id="7LR6ILex5jpHhu4dDKW4-30" style="edgeStyle=none;rounded=0;orthogonalLoop=1;jettySize=auto;html=1;exitX=0.5;exitY=1;exitDx=0;exitDy=0;labelBackgroundColor=#FFFFFF;strokeColor=#CCCCCC;fontColor=#000000;" edge="1" parent="1" source="7LR6ILex5jpHhu4dDKW4-18">
          <mxGeometry relative="1" as="geometry">
            <mxPoint x="738" y="420" as="targetPoint" />
          </mxGeometry>
        </mxCell>
        <mxCell id="7LR6ILex5jpHhu4dDKW4-18" value="apparaten" style="ellipse;whiteSpace=wrap;html=1;shadow=1;fontColor=#000000;" vertex="1" parent="1">
          <mxGeometry x="697.5" y="260" width="80" height="50" as="geometry" />
        </mxCell>
        <mxCell id="7LR6ILex5jpHhu4dDKW4-21" value="beschikbaar" style="ellipse;whiteSpace=wrap;html=1;shadow=1;fontColor=#000000;" vertex="1" parent="1">
          <mxGeometry x="860" y="260" width="80" height="50" as="geometry" />
        </mxCell>
        <mxCell id="7LR6ILex5jpHhu4dDKW4-23" value="uitgeleend" style="ellipse;whiteSpace=wrap;html=1;shadow=1;fontColor=#000000;" vertex="1" parent="1">
          <mxGeometry x="860" y="330" width="80" height="50" as="geometry" />
        </mxCell>
        <mxCell id="7LR6ILex5jpHhu4dDKW4-26" value="retourneert" style="ellipse;whiteSpace=wrap;html=1;shadow=1;fontColor=#000000;" vertex="1" parent="1">
          <mxGeometry x="690" y="20" width="80" height="50" as="geometry" />
        </mxCell>
        <mxCell id="7LR6ILex5jpHhu4dDKW4-27" value="datum" style="ellipse;whiteSpace=wrap;html=1;shadow=1;fontColor=#000000;" vertex="1" parent="1">
          <mxGeometry x="860" y="410" width="80" height="50" as="geometry" />
        </mxCell>
        <mxCell id="7LR6ILex5jpHhu4dDKW4-29" value="" style="endArrow=classic;html=1;rounded=0;labelBackgroundColor=#FFFFFF;strokeColor=#CCCCCC;fontColor=#000000;" edge="1" parent="1">
          <mxGeometry width="50" height="50" relative="1" as="geometry">
            <mxPoint x="490" y="330" as="sourcePoint" />
            <mxPoint x="540" y="280" as="targetPoint" />
          </mxGeometry>
        </mxCell>
        <mxCell id="7LR6ILex5jpHhu4dDKW4-33" style="edgeStyle=none;rounded=0;orthogonalLoop=1;jettySize=auto;html=1;exitX=1;exitY=0.5;exitDx=0;exitDy=0;entryX=0;entryY=0.5;entryDx=0;entryDy=0;labelBackgroundColor=#FFFFFF;strokeColor=#CCCCCC;fontColor=#000000;" edge="1" parent="1" source="7LR6ILex5jpHhu4dDKW4-32" target="7LR6ILex5jpHhu4dDKW4-27">
          <mxGeometry relative="1" as="geometry" />
        </mxCell>
        <mxCell id="7LR6ILex5jpHhu4dDKW4-34" style="edgeStyle=none;rounded=0;orthogonalLoop=1;jettySize=auto;html=1;exitX=1;exitY=0.5;exitDx=0;exitDy=0;entryX=0;entryY=0.5;entryDx=0;entryDy=0;labelBackgroundColor=#FFFFFF;strokeColor=#CCCCCC;fontColor=#000000;" edge="1" parent="1" source="7LR6ILex5jpHhu4dDKW4-32" target="7LR6ILex5jpHhu4dDKW4-27">
          <mxGeometry relative="1" as="geometry" />
        </mxCell>
        <mxCell id="7LR6ILex5jpHhu4dDKW4-37" style="edgeStyle=none;rounded=0;orthogonalLoop=1;jettySize=auto;html=1;exitX=1;exitY=1;exitDx=0;exitDy=0;labelBackgroundColor=#FFFFFF;strokeColor=#CCCCCC;fontColor=#000000;" edge="1" parent="1" source="7LR6ILex5jpHhu4dDKW4-32" target="7LR6ILex5jpHhu4dDKW4-38">
          <mxGeometry relative="1" as="geometry">
            <mxPoint x="860" y="510" as="targetPoint" />
          </mxGeometry>
        </mxCell>
        <mxCell id="7LR6ILex5jpHhu4dDKW4-32" value="inleveren" style="ellipse;whiteSpace=wrap;html=1;shadow=1;fontColor=#000000;" vertex="1" parent="1">
          <mxGeometry x="697.5" y="425" width="80" height="50" as="geometry" />
        </mxCell>
        <mxCell id="7LR6ILex5jpHhu4dDKW4-35" value="mail functie" style="ellipse;whiteSpace=wrap;html=1;shadow=1;fontColor=#000000;" vertex="1" parent="1">
          <mxGeometry x="470" y="20" width="80" height="50" as="geometry" />
        </mxCell>
        <mxCell id="7LR6ILex5jpHhu4dDKW4-38" value="opmerking" style="ellipse;whiteSpace=wrap;html=1;shadow=1;fontColor=#000000;" vertex="1" parent="1">
          <mxGeometry x="860" y="475" width="80" height="50" as="geometry" />
        </mxCell>
        <mxCell id="7LR6ILex5jpHhu4dDKW4-42" value="overzicht knop" style="ellipse;whiteSpace=wrap;html=1;shadow=1;fontColor=#000000;" vertex="1" parent="1">
          <mxGeometry x="530" y="390" width="80" height="50" as="geometry" />
        </mxCell>
      </root>
    </mxGraphModel>
  </diagram>
</mxfile>
